<?xml version="1.0" encoding="utf-8"?>
<!-- Generator: Adobe Illustrator 23.1.1, SVG Export Plug-In . SVG Version: 6.00 Build 0)  -->
<svg version="1.1" id="Calque_1" xmlns="http://www.w3.org/2000/svg" xmlns:xlink="http://www.w3.org/1999/xlink" x="0px" y="0px"
	 viewBox="0 0 512 512" style="enable-background:new 0 0 512 512;" xml:space="preserve">
<g>
	<path fill="#50505040" id="Tracé_10" d="M277.1,44.7C393.3,56.4,478,160.1,466.3,276.3c-2.3,22.8-8.3,45.2-17.8,66.1l36.7,21.3
		C545.2,237,491.1,85.8,364.5,25.9c-27.5-13-57.1-21-87.4-23.5V44.7z M63.4,342.4C15.2,236,62.4,110.7,168.8,62.5
		c20.9-9.5,43.2-15.5,66-17.8V2.3C95.2,14-8.5,136.7,3.2,276.3c2.5,30.3,10.5,59.9,23.5,87.3L63.4,342.4z M427.3,379
		c-67.5,94.6-198.8,116.6-293.4,49.2c-19-13.6-35.6-30.2-49.2-49.2l-36.9,21.4c79.4,115,237,143.8,352,64.4
		c25.2-17.4,47-39.2,64.4-64.4L427.3,379z"/>
	<path fill="#50505040" id="Tracé_11" d="M256.4,202.2l87.1,92.2H169.3L256.4,202.2z"/>
</g>
</svg>
